<mxfile host="app.diagrams.net" modified="2024-06-13T13:42:43.202Z" agent="Mozilla/5.0 (Windows NT 10.0; Win64; x64) AppleWebKit/537.36 (KHTML, like Gecko) Chrome/125.0.0.0 Safari/537.36" version="24.5.4" etag="BxcJlPPIiO5BEO1RIt24" type="github">
  <diagram name="Page-1" id="djUAbkr9IY3GaGRRfN-N">
    <mxGraphModel>
      <root>
        <mxCell id="0" />
        <mxCell id="1" parent="0" />
      </root>
    </mxGraphModel>
  </diagram>
</mxfile>
